<?xml version="1.0" encoding="UTF-8" standalone="no"?><!DOCTYPE svg PUBLIC "-//W3C//DTD SVG 1.1//EN" "http://www.w3.org/Graphics/SVG/1.1/DTD/svg11.dtd"><svg width="100%" height="100%" viewBox="0 0 1101 193" version="1.1" xmlns="http://www.w3.org/2000/svg" xmlns:xlink="http://www.w3.org/1999/xlink" xml:space="preserve" xmlns:serif="http://www.serif.com/" style="fill-rule:evenodd;clip-rule:evenodd;stroke-linejoin:round;stroke-miterlimit:2;"><path d="M115.201,190.497c-6.147,1.234 -12.504,1.882 -19.012,1.882c-53.088,0 -96.189,-43.101 -96.189,-96.189c0,-53.088 43.101,-96.189 96.189,-96.189c12.915,0 25.24,2.551 36.496,7.176l-93.055,105.45l140.845,-62.795c3.456,6.265 6.233,12.955 8.233,19.971l-134.073,63.216l130.43,0c-2.905,6.995 -6.612,13.574 -11.006,19.623l-123.35,0l64.493,37.856Zm125.456,-105.493l0,-13.189c0,-6.678 3.061,-12.355 9.182,-17.029c6.122,-4.786 13.579,-7.179 22.372,-7.179l126.05,0l0,25.711l-132.561,0l0,11.687l100.84,0c10.796,0 18.782,1.725 23.958,5.176c5.176,3.45 7.763,9.405 7.763,17.864l0,11.019c0,4.341 -0.807,8.097 -2.421,11.269c-1.614,3.172 -3.84,5.843 -6.678,8.014c-2.838,2.17 -6.205,3.784 -10.101,4.842c-3.896,1.057 -8.069,1.586 -12.521,1.586l-125.883,0l0,-25.711l131.559,0l0,-11.019l-100.172,0c-9.795,-0.223 -17.419,-2.198 -22.873,-5.927c-5.454,-3.729 -8.292,-9.433 -8.515,-17.113Zm175.468,35.561l0,-48.75c0,-6.678 3.061,-12.355 9.182,-17.029c6.122,-4.786 13.579,-7.179 22.372,-7.179l94.496,0c8.682,0 16.139,2.449 22.372,7.346c6.122,4.675 9.182,10.351 9.182,17.029l0,48.583c0,6.678 -3.061,12.41 -9.182,17.196c-6.233,4.675 -13.69,7.012 -22.372,7.012l-94.496,0c-8.793,0 -16.25,-2.337 -22.372,-7.012c-6.122,-4.786 -9.182,-10.518 -9.182,-17.196Zm132.728,-15.861l0,-18.699c-0.779,-3.339 -3.089,-6.289 -6.929,-8.849c-3.84,-2.56 -8.765,-3.84 -14.775,-3.84l-64.778,0c-5.899,0 -10.852,1.252 -14.859,3.756c-4.007,2.504 -6.122,5.593 -6.344,9.266l0,18.699c0,1.781 0.529,3.478 1.586,5.092c1.057,1.614 2.532,3.033 4.424,4.257c1.892,1.224 4.118,2.198 6.678,2.922c2.56,0.723 5.343,1.085 8.348,1.085l64.945,0c5.899,0 10.963,-1.336 15.193,-4.007c4.341,-2.783 6.511,-6.01 6.511,-9.683Zm200.344,13.69l0,26.379l-126.05,0c-8.793,0 -16.25,-2.337 -22.372,-7.012c-6.122,-4.786 -9.182,-10.518 -9.182,-17.196l0,-72.959l25.043,0l0,57.432c0,1.781 0.529,3.478 1.586,5.092c1.057,1.614 2.532,3.033 4.424,4.257c1.892,1.224 4.118,2.198 6.678,2.922c2.56,0.723 5.343,1.085 8.348,1.085l111.525,0Zm150.592,-13.69l0,-57.098l24.876,0l0,72.959c0,6.678 -3.061,12.41 -9.182,17.196c-6.233,4.675 -13.69,7.012 -22.372,7.012l-94.496,0c-8.793,0 -16.25,-2.337 -22.372,-7.012c-6.122,-4.786 -9.182,-10.518 -9.182,-17.196l0,-72.959l25.043,0l0,57.432c0,1.781 0.529,3.478 1.586,5.092c1.057,1.614 2.532,3.033 4.424,4.257c1.892,1.224 4.118,2.198 6.678,2.922c2.56,0.723 5.343,1.085 8.348,1.085l65.78,0c5.343,0 10.128,-1.336 14.358,-4.007c4.341,-2.783 6.511,-6.01 6.511,-9.683Zm101.841,2.671l-31.721,37.398l-27.38,0l40.403,-49.084l-9.015,-10.685l67.115,0l31.721,-37.398l27.38,0l-40.403,48.083l40.403,49.084l-27.38,0l-31.721,-37.398l-39.401,0Zm-10.017,-34.058l-28.048,0l-21.036,-25.711l27.38,0l21.704,25.711Z" style="fill:#fff;"/></svg>